<?xml version="1.0" standalone="no"?>
<!DOCTYPE svg PUBLIC "-//W3C//DTD SVG 20010904//EN"
 "http://www.w3.org/TR/2001/REC-SVG-20010904/DTD/svg10.dtd">
<svg version="1.0" xmlns="http://www.w3.org/2000/svg"
 width="2000.000000pt" height="2000.000000pt" viewBox="0 0 2000.000000 2000.000000"
 preserveAspectRatio="xMidYMid meet">
<metadata>
Created by potrace 1.11, written by Peter Selinger 2001-2013
</metadata>
<g transform="translate(0.000000,2000.000000) scale(0.100000,-0.100000)"
fill="#000000" stroke="none">
<path d="M17277 16833 c-2 -4 -31 -69 -62 -143 -32 -74 -66 -155 -77 -180 -11
-25 -24 -54 -29 -65 -5 -11 -162 -377 -349 -814 -187 -436 -347 -808 -354
-825 -8 -17 -40 -92 -71 -166 -32 -74 -65 -153 -75 -175 -10 -23 -39 -90 -65
-150 -25 -61 -52 -123 -60 -140 -7 -16 -86 -199 -175 -405 -88 -206 -167 -390
-175 -407 -16 -36 -43 -97 -55 -128 -5 -11 -20 -45 -33 -75 -14 -30 -52 -118
-85 -195 -169 -393 -570 -1317 -620 -1425 -154 -340 -217 -430 -397 -563 -44
-32 -81 -62 -83 -66 -1 -3 254 -6 568 -7 313 0 570 1 570 2 0 1 -25 16 -55 33
-115 65 -168 151 -159 257 6 68 69 255 169 506 47 117 92 227 99 243 8 17 40
91 71 165 31 74 67 158 79 185 12 28 37 84 56 126 l33 77 1040 -2 1040 -1 122
-295 c68 -162 128 -308 135 -325 7 -16 18 -43 25 -60 53 -123 196 -480 208
-522 20 -66 16 -157 -7 -206 -24 -49 -78 -103 -144 -146 -29 -18 -52 -34 -52
-35 0 -1 380 -1 845 -2 l845 0 0 32 c0 28 -7 37 -52 67 -109 72 -189 173 -258
322 -12 28 -74 167 -137 310 -64 143 -123 278 -133 300 -10 22 -77 177 -150
345 -73 168 -142 328 -155 355 -12 28 -50 115 -85 195 -34 80 -74 170 -87 200
-14 30 -44 100 -68 155 -38 88 -73 168 -135 310 -10 22 -39 90 -65 150 -25 61
-55 128 -65 150 -10 22 -109 249 -220 505 -277 640 -290 670 -310 715 -10 22
-54 123 -98 225 -304 702 -550 1268 -582 1340 -21 47 -52 121 -70 165 -35 85
-45 102 -53 88z m-282 -1898 c15 -38 36 -88 45 -110 10 -22 66 -156 124 -299
130 -315 453 -1090 471 -1131 34 -74 185 -440 185 -447 0 -5 -382 -8 -850 -8
-467 0 -850 4 -850 8 0 4 43 111 96 237 121 290 222 537 400 980 58 143 109
269 114 280 5 11 57 139 116 285 109 272 114 284 119 278 1 -2 15 -34 30 -73z"/>
<path d="M6957 16764 c-1 -1 -38 -4 -82 -8 -73 -6 -159 -18 -225 -31 -14 -2
-38 -7 -55 -10 -16 -4 -64 -16 -105 -27 -390 -107 -716 -301 -933 -555 -112
-132 -158 -208 -247 -408 -25 -55 -74 -236 -86 -315 -11 -77 -13 -401 -3 -475
35 -245 134 -478 288 -675 65 -84 245 -256 351 -337 275 -210 494 -332 1005
-563 122 -55 376 -183 440 -221 366 -221 526 -471 529 -829 1 -206 -29 -342
-115 -516 -98 -200 -273 -362 -479 -444 -74 -30 -175 -59 -230 -66 -25 -3 -49
-8 -53 -11 -5 -3 -82 -7 -170 -8 -164 -3 -204 0 -362 31 -115 23 -327 117
-452 201 -234 157 -444 402 -602 703 -56 107 -137 298 -147 346 -2 11 -10 38
-18 60 -14 36 -15 27 -10 -126 3 -91 7 -221 9 -290 8 -286 18 -600 20 -665 2
-38 4 -122 5 -185 l2 -115 52 -24 c265 -122 507 -214 700 -266 115 -30 322
-72 396 -80 30 -4 61 -8 68 -10 76 -25 624 -26 737 -2 11 3 42 8 68 11 148 20
400 103 572 188 124 61 261 141 285 168 3 3 32 25 65 50 68 51 232 211 292
285 187 233 310 515 354 815 14 93 17 358 6 460 -36 330 -141 599 -319 815
-92 112 -257 256 -393 343 -211 136 -375 218 -1020 515 -171 79 -490 243 -565
291 -341 220 -464 411 -463 721 0 105 30 271 53 300 5 6 9 15 10 20 1 6 12 32
25 58 79 157 211 281 380 358 180 81 453 105 685 59 30 -6 65 -13 78 -16 60
-12 186 -60 277 -105 259 -128 471 -332 652 -624 29 -46 102 -205 123 -265 12
-36 24 -67 26 -69 2 -2 1 46 -1 105 -2 60 -7 188 -10 284 -3 96 -8 234 -10
305 -6 179 -17 485 -19 515 -1 22 -18 33 -125 86 -164 81 -406 160 -596 193
-33 6 -71 13 -85 16 -14 3 -45 7 -70 11 -25 3 -56 7 -70 9 -86 12 -423 27
-433 19z"/>
<path d="M511 16672 l-504 -2 59 -38 c76 -50 125 -102 166 -177 l33 -60 2
-490 c2 -269 4 -1138 6 -1930 2 -792 6 -1451 9 -1465 4 -14 9 -47 13 -75 16
-131 51 -275 94 -391 181 -490 537 -832 1086 -1044 159 -62 392 -121 574 -146
25 -3 57 -8 71 -10 164 -26 661 -26 820 1 14 2 43 7 65 10 319 45 670 188 883
361 259 210 392 405 532 779 27 70 70 262 85 370 3 22 8 54 10 70 20 125 23
282 30 1315 4 503 8 1145 10 1425 2 281 4 654 5 830 2 335 10 417 48 491 26
51 86 119 128 145 19 11 34 24 34 27 0 4 -161 6 -358 5 -196 -1 -413 -3 -481
-3 l-124 0 39 -26 c53 -36 111 -98 136 -148 42 -83 47 -125 48 -450 1 -171 4
-720 6 -1221 9 -1502 9 -2166 1 -2250 -79 -822 -528 -1254 -1322 -1269 -139
-3 -231 2 -325 18 -82 13 -113 20 -189 42 -294 86 -524 277 -667 554 -15 30
-28 57 -29 60 0 3 -13 37 -27 75 -50 128 -86 294 -104 470 -10 97 -11 3767 -1
3834 16 107 112 236 216 291 27 14 31 19 16 20 -89 3 -681 5 -1094 2z"/>
<path d="M9691 16672 l-284 -2 41 -29 c59 -44 114 -114 142 -184 l25 -62 2
-2575 c1 -1623 -1 -2593 -7 -2625 -16 -82 -65 -168 -126 -224 -31 -28 -60 -51
-65 -51 -5 0 -9 -4 -9 -8 0 -8 2455 -7 2505 1 17 3 71 8 120 12 50 4 97 9 106
10 9 2 40 6 70 10 58 7 198 30 239 39 14 3 41 9 60 12 82 14 281 68 418 113
492 161 898 406 1242 751 254 254 456 548 588 855 24 55 47 109 52 120 36 82
103 312 134 460 22 104 25 124 32 190 4 33 8 63 10 66 5 10 17 223 17 319 0
94 -9 232 -18 280 -3 14 -7 41 -9 60 -22 171 -81 399 -158 600 -240 633 -693
1144 -1289 1454 -145 76 -252 123 -402 177 -180 65 -482 142 -637 164 -25 3
-85 13 -135 20 -49 8 -124 17 -165 20 -41 4 -91 8 -110 11 -108 14 -1584 24
-2389 16z m2069 -435 c19 -2 62 -8 95 -11 185 -22 454 -89 605 -152 551 -231
908 -593 1167 -1184 18 -39 77 -215 103 -305 24 -80 59 -262 75 -380 28 -221
24 -579 -10 -820 -22 -160 -25 -174 -51 -290 -14 -60 -27 -117 -29 -125 -12
-55 -64 -211 -100 -300 -199 -494 -514 -840 -970 -1065 -141 -69 -285 -122
-436 -161 -191 -48 -315 -68 -559 -90 -90 -8 -938 -12 -948 -4 -9 6 -10 4880
-2 4881 3 0 43 3 90 6 47 3 86 6 87 7 5 4 850 -2 883 -7z"/>
<path d="M18757 10094 c-1 -1 -193 -5 -427 -8 -234 -4 -479 -9 -545 -11 -66
-2 -214 -6 -330 -10 -221 -7 -337 -11 -575 -20 -80 -4 -190 -8 -245 -10 -55
-2 -152 -7 -215 -10 -63 -3 -160 -8 -215 -10 -55 -3 -138 -7 -185 -10 -47 -3
-128 -7 -180 -10 -208 -11 -298 -16 -360 -20 -36 -2 -112 -7 -170 -10 -58 -3
-125 -8 -150 -10 -25 -2 -90 -7 -145 -10 -55 -3 -125 -8 -155 -10 -68 -5 -197
-15 -270 -20 -30 -3 -91 -7 -135 -10 -44 -3 -100 -7 -125 -10 -25 -2 -81 -6
-125 -10 -44 -3 -102 -8 -130 -10 -27 -3 -77 -7 -110 -9 -33 -3 -91 -8 -130
-11 -38 -4 -92 -8 -120 -11 -27 -3 -75 -7 -105 -9 -30 -2 -107 -9 -170 -15
-63 -6 -137 -13 -165 -16 -27 -2 -70 -6 -95 -9 -25 -3 -70 -7 -100 -10 -30 -3
-75 -7 -100 -10 -82 -9 -144 -15 -202 -20 -32 -3 -77 -8 -100 -10 -24 -3 -71
-7 -106 -11 -35 -3 -71 -7 -81 -9 -10 -2 -54 -6 -97 -10 -43 -4 -88 -9 -99
-11 -11 -2 -49 -6 -85 -10 -36 -3 -78 -7 -95 -10 -16 -3 -52 -7 -80 -9 -27 -3
-84 -9 -125 -15 -41 -5 -100 -12 -130 -15 -30 -3 -66 -8 -80 -10 -14 -2 -50
-7 -80 -10 -30 -3 -66 -8 -80 -10 -14 -2 -47 -6 -75 -10 -84 -10 -128 -15
-165 -20 -19 -3 -55 -8 -80 -10 -44 -5 -98 -12 -150 -20 -14 -2 -50 -7 -80
-10 -30 -4 -62 -9 -70 -10 -8 -1 -40 -6 -70 -10 -30 -3 -66 -8 -80 -10 -14 -2
-63 -9 -110 -16 -47 -6 -94 -13 -105 -14 -11 -2 -42 -6 -70 -10 -51 -7 -78
-11 -130 -19 -16 -3 -95 -14 -175 -26 -80 -11 -156 -23 -170 -25 -21 -4 -156
-24 -325 -50 -22 -4 -51 -8 -65 -11 -14 -2 -41 -7 -60 -10 -19 -3 -46 -7 -60
-10 -49 -8 -146 -24 -185 -29 -22 -3 -50 -8 -63 -11 -13 -2 -117 -21 -230 -40
-114 -19 -218 -37 -232 -39 -14 -3 -38 -7 -55 -10 -16 -3 -66 -13 -110 -21
-44 -8 -118 -22 -165 -30 -47 -8 -95 -17 -108 -19 -12 -2 -30 -6 -40 -9 -9 -3
-34 -7 -54 -10 -21 -3 -57 -10 -80 -15 -24 -5 -59 -12 -78 -15 -19 -3 -46 -8
-60 -11 -113 -23 -229 -46 -250 -50 -14 -3 -60 -12 -103 -21 -42 -8 -90 -18
-105 -20 -15 -3 -88 -19 -162 -35 -74 -16 -146 -32 -160 -34 -35 -5 -261 -54
-282 -61 -10 -3 -29 -7 -42 -10 -44 -8 -337 -74 -466 -105 -470 -114 -595
-144 -755 -185 -99 -26 -245 -64 -324 -86 -79 -22 -151 -41 -160 -43 -85 -20
-582 -161 -736 -209 -27 -8 -126 -39 -220 -67 -766 -231 -1794 -596 -2325
-824 -30 -13 -131 -56 -225 -96 -238 -100 -476 -206 -639 -283 -76 -36 -140
-66 -142 -66 -3 0 -136 -66 -297 -147 -160 -80 -313 -157 -339 -169 -59 -30
-74 -51 -16 -24 95 44 791 281 1208 410 468 146 863 261 1320 386 151 41 298
81 325 89 85 24 205 56 224 60 9 2 62 15 117 29 54 15 108 28 119 31 11 2 164
40 340 84 385 95 853 206 995 236 8 2 65 15 125 29 61 13 216 47 345 75 129
27 246 52 260 55 104 23 945 191 1060 212 80 14 154 28 165 30 38 7 190 36
215 41 64 11 460 82 500 89 25 4 47 8 50 9 13 3 88 16 115 20 31 4 136 22 170
29 11 2 42 7 69 10 27 4 52 9 55 11 3 1 33 6 65 9 32 4 62 8 65 10 3 2 30 7
60 11 30 4 63 9 75 11 21 4 292 47 371 59 22 3 65 10 95 15 30 6 72 12 94 15
69 8 121 16 136 20 8 2 44 7 80 10 36 4 67 8 70 10 3 2 91 15 195 29 105 14
199 28 210 30 11 2 45 7 76 10 31 4 67 9 79 11 12 2 48 7 79 10 31 3 67 8 81
10 14 3 43 7 65 10 22 3 54 8 70 10 17 2 71 9 120 15 90 11 121 15 193 25 20
3 60 8 87 11 28 2 68 7 90 9 22 3 60 8 85 11 25 3 59 7 75 9 49 6 286 35 340
40 129 14 152 17 175 20 14 2 57 7 95 11 39 3 77 8 86 9 9 2 52 6 95 10 43 4
86 9 94 10 8 2 51 6 95 10 44 4 91 8 104 10 13 3 58 7 100 10 42 4 87 8 101
10 14 2 61 7 105 10 44 3 91 8 105 10 31 5 128 15 200 20 51 3 120 9 230 20
53 6 206 18 355 30 39 3 95 8 125 10 111 10 157 14 255 21 55 3 114 8 130 9
17 1 73 6 125 9 52 4 122 9 155 12 33 2 98 6 145 9 47 2 112 7 145 10 33 3
101 7 150 10 82 4 170 10 345 20 36 2 119 7 185 10 66 4 148 8 183 10 35 2
129 6 210 10 81 3 179 8 217 10 39 2 144 6 235 10 91 4 203 8 250 10 47 2 182
6 300 10 118 4 262 8 320 10 585 20 2257 26 2965 11 410 -8 446 -8 454 -1 6 7
5 815 -2 821 -4 5 -1095 12 -1100 8z"/>
<path d="M210 9694 l0 -396 28 6 c40 8 97 15 187 21 44 4 91 8 105 10 30 5
269 16 435 21 170 5 872 5 1110 0 283 -7 729 -21 965 -31 74 -3 182 -8 240
-10 202 -9 336 -15 435 -20 55 -3 138 -8 185 -10 123 -6 272 -14 370 -20 289
-17 447 -26 516 -30 58 -3 207 -12 324 -20 30 -2 98 -7 150 -10 52 -3 115 -7
140 -10 25 -2 97 -7 160 -10 63 -4 131 -8 150 -10 19 -2 78 -6 130 -10 52 -3
118 -8 145 -10 28 -2 88 -6 135 -9 47 -4 105 -8 130 -11 25 -2 86 -7 135 -10
50 -3 113 -8 140 -10 78 -6 193 -15 275 -20 41 -3 91 -8 110 -10 l35 -5 -35
16 c-65 28 -443 152 -655 213 -265 76 -714 189 -920 231 -49 10 -122 25 -160
33 -39 9 -84 18 -100 22 -17 3 -79 15 -140 26 -60 12 -135 25 -165 30 -30 6
-66 12 -80 15 -14 3 -34 6 -45 8 -11 2 -60 11 -110 20 -49 8 -107 18 -129 22
-21 3 -46 7 -55 9 -9 1 -34 5 -56 9 -22 3 -98 15 -170 26 -165 27 -170 27
-230 35 -27 3 -61 8 -75 10 -22 3 -107 15 -222 30 -18 3 -57 7 -86 10 -29 4
-61 8 -70 10 -9 1 -46 6 -82 10 -36 3 -76 8 -90 10 -14 2 -50 6 -80 10 -83 9
-126 15 -167 20 -78 9 -173 19 -303 29 -41 4 -82 9 -90 11 -8 2 -53 7 -99 10
-47 3 -98 8 -115 10 -17 2 -71 7 -121 10 -49 4 -103 8 -120 10 -16 2 -68 7
-115 10 -47 3 -101 8 -120 10 -19 2 -84 6 -145 10 -60 3 -126 8 -145 10 -19 2
-87 6 -150 9 -63 4 -142 9 -175 11 -33 2 -112 7 -175 10 -63 3 -160 8 -215 10
-146 7 -346 15 -547 20 l-178 5 0 -396z"/>
<path d="M1688 8775 c-2 -2 -145 -6 -318 -9 -438 -9 -908 -23 -1060 -31 -25
-2 -57 -3 -72 -4 l-28 -1 0 -391 c0 -342 2 -390 15 -385 144 55 600 149 1165
241 52 8 106 17 120 19 14 3 75 12 135 21 122 18 121 18 255 39 52 8 115 18
140 21 25 3 56 8 70 10 14 2 45 7 70 10 25 3 72 10 105 15 33 5 78 12 100 15
22 3 56 8 75 11 19 3 51 8 70 10 19 3 80 11 135 19 55 8 123 17 150 20 28 4
91 13 140 20 50 8 115 17 145 20 30 3 62 8 70 10 8 2 42 6 75 10 33 3 85 10
115 15 30 5 80 12 110 15 30 3 66 8 80 10 14 2 44 7 68 10 23 3 59 7 80 10 20
2 109 14 197 25 88 11 174 22 190 25 83 11 132 18 155 20 82 9 138 16 160 20
24 4 48 7 160 21 179 21 402 52 385 54 -11 1 -31 3 -45 5 -14 2 -65 6 -115 10
-49 4 -110 8 -135 10 -117 9 -213 15 -305 20 -55 3 -134 7 -175 10 -41 2 -163
7 -270 11 -107 3 -235 8 -285 10 -102 5 -1923 13 -1927 9z"/>
<path d="M18078 8604 c-2 -1 -156 -5 -343 -9 -187 -3 -407 -8 -490 -10 -391
-12 -687 -22 -885 -30 -69 -2 -190 -7 -270 -10 -80 -3 -179 -8 -220 -10 -41
-2 -129 -7 -195 -10 -66 -2 -160 -7 -210 -10 -49 -3 -137 -7 -195 -10 -58 -3
-134 -7 -170 -10 -36 -2 -114 -7 -175 -10 -60 -3 -141 -8 -180 -10 -38 -3
-110 -7 -160 -10 -49 -3 -121 -7 -160 -10 -38 -3 -106 -7 -150 -10 -44 -3
-107 -7 -140 -10 -33 -3 -100 -7 -150 -10 -49 -3 -112 -8 -140 -10 -27 -2 -81
-7 -120 -9 -347 -26 -476 -36 -635 -51 -30 -3 -89 -7 -130 -10 -83 -7 -161
-13 -230 -20 -25 -2 -74 -7 -110 -10 -36 -3 -85 -7 -110 -10 -25 -3 -74 -7
-110 -10 -36 -3 -81 -7 -100 -10 -19 -2 -66 -7 -105 -10 -38 -3 -86 -8 -105
-10 -19 -2 -69 -7 -110 -11 -41 -3 -86 -8 -100 -9 -145 -14 -178 -17 -200 -20
-14 -2 -54 -6 -90 -10 -36 -3 -76 -8 -90 -10 -14 -2 -59 -7 -100 -10 -41 -4
-82 -8 -90 -10 -8 -2 -49 -7 -90 -10 -41 -4 -82 -8 -90 -10 -8 -1 -46 -6 -85
-9 -38 -4 -81 -9 -95 -11 -14 -2 -47 -7 -75 -10 -106 -11 -386 -44 -425 -50
-22 -3 -71 -9 -170 -20 -14 -2 -52 -6 -85 -9 -33 -4 -69 -8 -80 -11 -11 -2
-42 -7 -70 -10 -27 -3 -63 -8 -80 -10 -16 -3 -52 -7 -80 -10 -27 -4 -62 -8
-76 -11 -15 -2 -47 -6 -70 -9 -76 -9 -123 -15 -149 -20 -14 -3 -50 -7 -80 -10
-30 -3 -80 -10 -110 -15 -30 -5 -77 -11 -105 -15 -27 -3 -61 -7 -75 -10 -14
-2 -41 -6 -60 -9 -19 -2 -69 -9 -110 -15 -41 -7 -88 -13 -105 -16 -89 -12
-327 -47 -375 -55 -30 -5 -73 -12 -95 -15 -23 -3 -50 -7 -62 -9 -12 -3 -43 -7
-70 -11 -26 -3 -70 -10 -98 -15 -27 -5 -68 -12 -90 -15 -23 -3 -50 -7 -62 -9
-11 -3 -38 -7 -59 -11 -71 -11 -399 -65 -424 -69 -24 -5 -189 -33 -240 -41
-14 -2 -65 -11 -115 -20 -49 -9 -153 -27 -230 -40 -77 -14 -151 -27 -165 -30
-14 -3 -110 -21 -215 -41 -104 -19 -200 -37 -212 -40 -47 -9 -79 -14 -113 -20
-19 -3 -42 -7 -50 -9 -8 -2 -28 -7 -45 -9 -16 -3 -140 -28 -275 -55 -135 -28
-256 -52 -270 -55 -14 -2 -68 -14 -120 -25 -52 -11 -107 -22 -123 -25 -15 -3
-35 -7 -45 -10 -9 -3 -28 -7 -42 -10 -14 -2 -56 -11 -95 -20 -38 -9 -81 -18
-95 -20 -14 -3 -34 -7 -45 -10 -17 -3 -493 -110 -546 -122 -11 -2 -27 -6 -37
-8 -20 -5 -320 -76 -342 -81 -8 -2 -62 -15 -120 -29 -86 -20 -382 -94 -452
-112 -10 -2 -27 -6 -37 -8 -21 -5 -346 -90 -431 -112 -30 -9 -62 -17 -70 -19
-30 -6 -106 -27 -135 -36 -16 -5 -106 -30 -200 -55 -382 -102 -906 -256 -1280
-374 -55 -18 -116 -36 -135 -42 -19 -5 -60 -18 -90 -28 -30 -10 -158 -52 -285
-94 -273 -89 -719 -241 -734 -251 -8 -4 -11 -400 -11 -1341 l0 -1334 9827 2
9828 3 0 2713 c0 1493 -3 2719 -7 2725 -5 9 -244 12 -892 13 -487 0 -887 0
-888 -2z"/>
</g>
</svg>
